<svg xmlns="http://www.w3.org/2000/svg" xmlns:xlink="http://www.w3.org/1999/xlink" width="292" height="280" viewBox="0 0 292 280">
  <defs>
    <style>
      .cls-1, .cls-6 {
        fill: #fff;
      }

      .cls-2 {
        clip-path: url(#clip-path);
      }

      .cls-3 {
        fill: #db3c37;
      }

      .cls-10, .cls-11, .cls-12, .cls-13, .cls-14, .cls-15, .cls-16, .cls-17, .cls-18, .cls-19, .cls-20, .cls-21, .cls-22, .cls-23, .cls-24, .cls-25, .cls-26, .cls-27, .cls-28, .cls-3, .cls-30, .cls-31, .cls-32, .cls-33, .cls-34, .cls-38, .cls-4, .cls-40, .cls-41, .cls-42, .cls-43, .cls-5, .cls-6, .cls-7, .cls-8, .cls-9 {
        fill-rule: evenodd;
      }

      .cls-4 {
        fill: #dc5b5b;
      }

      .cls-5 {
        fill: #901f1f;
      }

      .cls-7 {
        fill: #afafaf;
      }

      .cls-8 {
        fill: #154d77;
      }

      .cls-9 {
        fill: #3a7ba2;
      }

      .cls-10 {
        fill: #002f47;
      }

      .cls-11 {
        fill: #ffb323;
      }

      .cls-12 {
        fill: #bd8119;
      }

      .cls-13 {
        fill: #151a33;
      }

      .cls-13, .cls-14, .cls-36 {
        opacity: 0.25;
      }

      .cls-15 {
        fill: url(#linear-gradient);
      }

      .cls-16 {
        fill: url(#linear-gradient-2);
      }

      .cls-17 {
        fill: url(#linear-gradient-3);
      }

      .cls-18 {
        fill: url(#linear-gradient-4);
      }

      .cls-19 {
        fill: #303030;
      }

      .cls-20 {
        fill: #3b3b3b;
      }

      .cls-21 {
        fill: #292929;
      }

      .cls-22 {
        fill: #212121;
      }

      .cls-23 {
        opacity: 0.2;
      }

      .cls-24 {
        fill: #150d05;
        opacity: 0.61;
      }

      .cls-25 {
        fill: url(#linear-gradient-5);
      }

      .cls-26 {
        fill: #de8f23;
      }

      .cls-27, .cls-37 {
        fill: #f6be14;
      }

      .cls-28 {
        fill: #e5ad1a;
      }

      .cls-29, .cls-42 {
        fill: #ffea5f;
      }

      .cls-30 {
        fill: #ffcb00;
      }

      .cls-31 {
        fill: #cd9a06;
      }

      .cls-32 {
        fill: #ebb80a;
      }

      .cls-33 {
        fill: #aa7833;
      }

      .cls-34 {
        fill: #ffe237;
      }

      .cls-35, .cls-43 {
        fill: #ffffcb;
      }

      .cls-38, .cls-39 {
        fill: #fad453;
      }

      .cls-40 {
        fill: #ffff98;
      }

      .cls-41 {
        fill: #d29f08;
      }
    </style>
    <clipPath id="clip-path">
      <rect id="Rectangle_2755" data-name="Rectangle 2755" class="cls-1" width="292" height="280" transform="translate(129.966 238.41)"/>
    </clipPath>
    <linearGradient id="linear-gradient" x1="0.471" y1="0.446" x2="0.646" y2="0.628" gradientUnits="objectBoundingBox">
      <stop offset="0" stop-color="#24211f"/>
      <stop offset="1" stop-color="#84807f"/>
    </linearGradient>
    <linearGradient id="linear-gradient-2" x1="0.536" y1="0.517" x2="0.706" y2="0.711" gradientUnits="objectBoundingBox">
      <stop offset="0" stop-color="#12100c"/>
      <stop offset="0.08" stop-color="#211f1c"/>
      <stop offset="0.21" stop-color="#33312e"/>
      <stop offset="0.36" stop-color="#403d3a"/>
      <stop offset="0.56" stop-color="#474442"/>
      <stop offset="1" stop-color="#494644"/>
    </linearGradient>
    <linearGradient id="linear-gradient-3" x1="0.585" y1="0.196" x2="0.426" y2="0.762" gradientUnits="objectBoundingBox">
      <stop offset="0" stop-color="#12100d"/>
      <stop offset="0.64" stop-color="#1c1917"/>
      <stop offset="1" stop-color="#24211f"/>
    </linearGradient>
    <linearGradient id="linear-gradient-4" x1="-0.637" y1="-0.683" x2="8.787" y2="7.591" gradientUnits="objectBoundingBox">
      <stop offset="0" stop-color="#12100c"/>
      <stop offset="1" stop-color="#2c2926"/>
    </linearGradient>
    <linearGradient id="linear-gradient-5" x1="0.266" y1="0.475" x2="0.695" y2="0.652" gradientUnits="objectBoundingBox">
      <stop offset="0" stop-color="#874c12"/>
      <stop offset="1" stop-color="#c48700"/>
    </linearGradient>
  </defs>
  <g id="Mask_Group_5" data-name="Mask Group 5" class="cls-2" transform="translate(-129.966 -238.41)">
    <g id="Layer_2" data-name="Layer 2" transform="translate(130 301.968)">
      <g id="Ñëîé_1" data-name="Ñëîé 1" transform="translate(0 0)">
        <path id="Path_5464" data-name="Path 5464" class="cls-3" d="M130.643,63.416V90.579l46.047-.028h4.666v.008c5.194,0,8.089-2.912,9.683-6.541h0a24.557,24.557,0,0,0,1.69-9.481A23.688,23.688,0,0,0,191,65.169c-1.6-3.553-4.5-6.386-9.655-6.386h-50.7Z" transform="translate(50.97 22.934)"/>
        <path id="Path_5465" data-name="Path 5465" class="cls-4" d="M130.643,63.416v1.21a206.1,206.1,0,0,0,25.2,1.394c14.6,0,27.316-1.209,33.952-3a9.684,9.684,0,0,0-8.451-4.24h-50.7Z" transform="translate(50.97 22.934)"/>
        <path id="Path_5466" data-name="Path 5466" class="cls-5" d="M131.448,84.4l44.93-.027h4.665v.008c5.194,0,8.089-2.912,9.683-6.541h0a18.093,18.093,0,0,0,1.043-3.229c-17.772,4.035-40.907.568-60.324,2.3Z" transform="translate(51.283 29.11)"/>
        <path id="Path_5467" data-name="Path 5467" class="cls-6" d="M153.739,61.376l-77.85.083a35.786,35.786,0,0,1,1.992,12.073,36.216,36.216,0,0,1-2.115,12.413q-.238.824-.5,1.7l83.416-.1C169.546,87.394,167.86,61.366,153.739,61.376Z" transform="translate(29.365 23.945)"/>
        <path id="Path_5468" data-name="Path 5468" class="cls-7" d="M77.164,79.7q-.125.771-.28,1.522l49.611-.59L77.163,79.7Zm.49-5.582q-.015,1.053-.083,2.087l82.223-.817L77.658,74.112Zm-.144-4.058L140.547,71l-62.933.605Q77.576,70.823,77.51,70.058Zm-1.674-8.133a33.567,33.567,0,0,1,1.32,5.3l81.04-.078a7.29,7.29,0,0,1,5.606,2.912V68.775c-1.8-3.987-4.995-7.1-9.592-7.384Z" transform="translate(29.588 23.952)"/>
        <path id="Path_5469" data-name="Path 5469" class="cls-5" d="M72.975,63.458l84.408-.063a5.677,5.677,0,0,1,5.47,3.668,19.139,19.139,0,0,1,1.313,7.479,20.058,20.058,0,0,1-1.294,7.625v.009a5.694,5.694,0,0,1-5.478,3.772v.009l-84.418.809V90.64l84.419-.09v.008c5.2,0,8.09-2.912,9.683-6.541h0a24.535,24.535,0,0,0,1.688-9.481,23.7,23.7,0,0,0-1.727-9.37c-1.605-3.553-4.5-6.386-9.659-6.385h-7.8l-15.293.007-61.318.053Z" transform="translate(28.471 22.934)"/>
        <path id="Path_5470" data-name="Path 5470" class="cls-5" d="M172.067,61.977a28.255,28.255,0,0,1,2.886,11.913A30.543,30.543,0,0,1,172.067,85.8h3.451a33.807,33.807,0,0,0,2.531-11.908,32.855,32.855,0,0,0-2.531-11.913Zm-23.588,0h3.448a42.111,42.111,0,0,1,1.959,11.913A39.856,39.856,0,0,1,151.927,85.8h-3.448a34.956,34.956,0,0,0,2.312-11.908A34.381,34.381,0,0,0,148.479,61.977Zm-5.411,0h3.447a45.168,45.168,0,0,1,1.824,11.913A41.591,41.591,0,0,1,146.515,85.8h-3.447a36.2,36.2,0,0,0,2.181-11.908A36.347,36.347,0,0,0,143.068,61.977Zm34.411,0h3.452a31.364,31.364,0,0,1,2.664,11.913A32.71,32.71,0,0,1,180.93,85.8h-3.447a29.778,29.778,0,0,0,3.026-11.908,27.211,27.211,0,0,0-3.026-11.913Z" transform="translate(55.818 24.18)"/>
        <path id="Path_5471" data-name="Path 5471" class="cls-3" d="M119.384,75.057,123,73.332l3.8,1.793a2.238,2.238,0,0,0,3.192-2.03l-.008-4.814H116.117l.066,4.784a2.238,2.238,0,0,0,3.2,1.992Z" transform="translate(45.303 26.64)"/>
        <path id="Path_5472" data-name="Path 5472" class="cls-8" d="M122.551,86.283v27.2l46.1-.028h4.669v.009c5.2,0,8.1-2.916,9.693-6.548h0a24.628,24.628,0,0,0,1.692-9.493,23.718,23.718,0,0,0-1.73-9.38c-1.608-3.558-4.507-6.394-9.671-6.393H122.551Z" transform="translate(47.813 31.854)"/>
        <path id="Path_5473" data-name="Path 5473" class="cls-9" d="M122.551,86.284v1.209a206.249,206.249,0,0,0,25.232,1.4c14.617,0,27.349-1.211,33.993-3a9.7,9.7,0,0,0-8.461-4.241H122.551Z" transform="translate(47.813 31.853)"/>
        <path id="Path_5474" data-name="Path 5474" class="cls-10" d="M123.354,107.3l44.986-.028h4.669v.008c5.2,0,8.1-2.916,9.693-6.549h0a18.049,18.049,0,0,0,1.053-3.234c-17.794,4.04-40.959.569-60.4,2.306Z" transform="translate(48.127 38.037)"/>
        <path id="Path_5475" data-name="Path 5475" class="cls-6" d="M145.674,84.242l-77.948.078a35.843,35.843,0,0,1,2,12.09A36.264,36.264,0,0,1,67.6,108.839c-.159.55-.325,1.114-.5,1.7l83.519-.1C161.5,110.29,159.813,84.231,145.674,84.242Z" transform="translate(26.18 32.867)"/>
        <path id="Path_5476" data-name="Path 5476" class="cls-7" d="M68.707,104.128l48.181-.6-47.9-.947C68.909,103.1,68.812,103.62,68.707,104.128Zm.262-14.017a33.68,33.68,0,0,0-1.316-5.3l83.554-.578a7.775,7.775,0,0,1,3.941,1.215v7.5a7,7,0,0,0-5.445-2.916l-80.739.078Zm.494,4.39,61.075-.613-61.21-.953c.1,1.135.152,2.431.152,3.478s-.031,1.811-.092,2.7l79.841-.826L69.5,97Q69.539,95.747,69.463,94.5Z" transform="translate(26.395 32.862)"/>
        <path id="Path_5477" data-name="Path 5477" class="cls-10" d="M64.811,86.325l84.513-.063a5.682,5.682,0,0,1,5.476,3.673,19.173,19.173,0,0,1,1.316,7.487,20.073,20.073,0,0,1-1.3,7.634v.009a5.7,5.7,0,0,1-5.486,3.777v.009l-84.523.811v3.879l84.525-.091v.009c5.2,0,8.1-2.916,9.693-6.548h0a24.626,24.626,0,0,0,1.691-9.493,23.7,23.7,0,0,0-1.73-9.38c-1.607-3.558-4.507-6.394-9.67-6.393h-7.806l-15.31.006-61.4.053Z" transform="translate(25.285 31.853)"/>
        <path id="Path_5478" data-name="Path 5478" class="cls-11" d="M114,40.615V67.779l59.958-.028h4.664v.011c5.2,0,8.09-2.913,9.683-6.54h0A24.537,24.537,0,0,0,190,51.741a23.7,23.7,0,0,0-1.727-9.369c-1.606-3.553-4.5-6.386-9.658-6.386H114Z" transform="translate(44.479 14.04)"/>
        <path id="Path_5479" data-name="Path 5479" class="cls-12" d="M114,53.319v8.736l59.958-.028h4.664v.01c5.2,0,8.09-2.914,9.683-6.541h0a19.667,19.667,0,0,0,1.349-4.841C167.319,55.564,138.676,51.665,114,53.319Z" transform="translate(44.479 19.763)"/>
        <path id="Path_5480" data-name="Path 5480" class="cls-6" d="M130.83,38.576l-55.508.078a35.813,35.813,0,0,1,1.992,12.074A36.23,36.23,0,0,1,75.2,63.142c-.158.55-.325,1.113-.5,1.7l61.071-.1C146.641,64.594,144.951,38.567,130.83,38.576Z" transform="translate(29.144 15.05)"/>
        <path id="Path_5481" data-name="Path 5481" class="cls-7" d="M77.04,53.535q-.043.593-.1,1.182l47.216-.457Zm.046-4.943c.027.495.043.994.051,1.5l56.487-.578L77.086,48.6Zm53.569-10.016-55.508.078a33.018,33.018,0,0,1,1.346,4.983l57.08.014a9.615,9.615,0,0,1,6.709,2.911V42.77l-.008-.012c-1.992-2.459-5.753-3.977-8.956-4.163H131.3c-.209-.013-.425-.02-.644-.019Z" transform="translate(29.319 15.05)"/>
        <path id="Path_5482" data-name="Path 5482" class="cls-12" d="M72.746,40.616l61.6-.022a5.676,5.676,0,0,1,5.47,3.668,19.148,19.148,0,0,1,1.314,7.477,20.047,20.047,0,0,1-1.295,7.626v.008a5.69,5.69,0,0,1-5.478,3.774v.008l-61.612.767V67.8l61.61-.05v.015c5.2,0,8.09-2.913,9.683-6.54h0a24.54,24.54,0,0,0,1.689-9.481A23.7,23.7,0,0,0,144,42.372c-1.606-3.553-4.5-6.386-9.659-6.386h-.835c-27.859.012-32.908,0-60.767.022Z" transform="translate(28.379 14.04)"/>
        <path id="Path_5483" data-name="Path 5483" class="cls-12" d="M165.143,40.477h3.749c1.955,5.086,2.17,13.864,0,18.948h-3.749C166.746,54.339,166.652,45.561,165.143,40.477Zm-30.968,0h3.749c1.955,5.086,2.17,13.864,0,18.948h-3.749C135.779,54.339,135.685,45.561,134.175,40.477Zm15.483,0h3.749c1.955,5.086,2.175,13.864,0,18.948h-3.748c1.6-5.084,1.51-13.865,0-18.948Z" transform="translate(52.349 15.792)"/>
        <path id="Path_5484" data-name="Path 5484" class="cls-13" d="M133.72,112.132C59.867,112.132,0,109.67,0,106.631s59.87-5.5,133.72-5.5,133.72,2.463,133.72,5.5S207.577,112.132,133.72,112.132Z" transform="translate(0 39.456)"/>
        <path id="Path_5485" data-name="Path 5485" class="cls-14" d="M105.459,35.989l102.394,39.2C188.742,79.453,147.94,88.5,128.174,80.8S85.714,50.013,82.191,35.992Z" transform="translate(32.067 14.041)"/>
        <path id="Path_5486" data-name="Path 5486" class="cls-15" d="M260.326,69.448,184.7,8.514a10.159,10.159,0,0,0-5.635-2.189L82.56.007c-2.1-.138-3.285,1.966-3.934,3.953,100.967,78.3,54.617,60.3,181.883,70.6C261.054,73.254,261.96,70.752,260.326,69.448Z" transform="translate(30.676 0)"/>
        <path id="Path_5487" data-name="Path 5487" class="cls-16" d="M260.176,69.83,184.552,8.9a10.165,10.165,0,0,0-5.635-2.189L82.41.392c-2.1-.137-3.285,1.966-3.932,3.953,100.967,78.3,54.617,60.3,181.883,70.6C260.908,73.638,261.81,71.138,260.176,69.83Z" transform="translate(30.618 0.15)"/>
        <path id="Path_5488" data-name="Path 5488" class="cls-17" d="M259.668,71.892,182.973,12.3a10.167,10.167,0,0,0-5.633-2.189L80.6,2.343a1.921,1.921,0,0,0-1.353,3.5l74.931,60.015a15.025,15.025,0,0,0,3.942,2.269l.022.008a15.029,15.029,0,0,0,4.441.986l95.734,6.27a1.92,1.92,0,0,0,1.353-3.5Z" transform="translate(30.586 0.912)"/>
        <path id="Path_5489" data-name="Path 5489" class="cls-18" d="M79.117,2a9.4,9.4,0,0,0-.447.967l98.469,7.9h.006a9.614,9.614,0,0,1,2.838.634h0a9.625,9.625,0,0,1,2.522,1.449l.007.005,78.1,60.516a8.88,8.88,0,0,0,.294-1.034l-77.781-60.27h0a10.6,10.6,0,0,0-2.782-1.6h0a10.556,10.556,0,0,0-3.124-.7h0Z" transform="translate(30.693 0.781)"/>
        <path id="Path_5490" data-name="Path 5490" class="cls-19" d="M117.99,13.879,102.23,30.264c-3.559,4.315-9.927,10.117.375,16.761,25.058,16.16,35.4,30.589,42.09,33.186s24.04-1.075,53.421,3.908c12.079,2.048,11.279-6.539,11.552-12.129l-.612-22.38a6.75,6.75,0,0,0-1.886-4.174,127.821,127.821,0,0,0-85.366-33.1A5.684,5.684,0,0,0,117.99,13.879Z" transform="translate(37.844 4.812)"/>
        <path id="Path_5491" data-name="Path 5491" class="cls-20" d="M169.9,75.589h.006l.537.083h.008c10.009,1.376,10.523-5.052,10.7-10.337l.009-.27v-.012l.009-.27v-.009l.009-.269V64.5l.009-.268v-.006l.01-.266h0l.011-.265h0l.012-.262-.609-22.379a6.763,6.763,0,0,0-1.869-4.157l-.047-.043q-.5-.451-1.007-.9l-.167-.146q-.446-.393-.9-.78l-.266-.23c-.2-.171-.4-.341-.6-.51C177.46,44.415,181.036,56.5,169.9,75.589Z" transform="translate(66.288 13.379)"/>
        <path id="Path_5492" data-name="Path 5492" class="cls-21" d="M102.23,30.264c-3.559,4.315-9.927,10.117.375,16.761q.584.376,1.158.751l.19.124.949.627.288.192c.272.182.544.363.812.544.154.1.3.205.456.308.215.147.432.293.645.439l.441.3.624.43.473.33.584.408.424.3.611.432.407.291.607.436.437.318.544.395.469.345.513.379.417.308.549.41.4.3c.179.135.359.27.536.406.135.1.268.2.4.306l.523.4.377.292q.267.205.53.411l.356.278.524.411.384.3c.157.124.313.25.468.371l.386.309c.167.129.325.26.485.388l.326.264.5.4.361.3.448.367.342.282.471.389.321.267.455.381.324.273.45.379.295.25.46.391.3.257.417.36.321.277.411.356.267.232.477.417.2.173.488.43.2.174.507.448.139.124.534.477.12.107.519.467.135.121.489.442.15.136.52.471.048.043c2.5,2.266,4.659,4.287,6.564,5.991l.033.029q.674.6,1.306,1.15l.046.04c.127.11.25.218.377.325l.06.051.37.313h.005q.411.346.8.668l.012.009a19.885,19.885,0,0,0,4.219,2.771c2.231-7.486,7.282-20.9,11.711-31.4,4.061-9.621,8.824-18.353,12.8-27.17a128.612,128.612,0,0,0-47.048-9.163h-.046a5.679,5.679,0,0,0-3.784,1.542Z" transform="translate(37.844 4.812)"/>
        <path id="Path_5493" data-name="Path 5493" class="cls-22" d="M117.99,13.878,102.23,30.263c-3.559,4.315-9.927,10.117.375,16.761q.533.345,1.058.688l.167.107.995.656.182.121q.5.33.98.656l.145.1q.493.334.98.668l.024.017.017.012.963.663.16.111q.467.324.926.647l.156.109q.46.323.911.644l.141.1.924.663h0q.457.334.907.66l.149.109.863.636.139.1c.29.215.584.431.866.646l.067.05.848.64.066.051q.417.316.821.628l.15.115c.265.2.528.408.789.611l.12.094q.4.314.8.627l.074.058.778.617.058.046c.264.21.523.417.782.627l.1.083q.371.3.734.6l.13.106q.366.3.727.6l.073.06.705.584.061.05q.371.308.732.613l.067.055.717.605.062.053q.36.3.712.605l.012.011.693.6.052.045q.323.278.639.553l.129.113.619.54.07.062,1.316,1.162.018.016q.322.285.637.568l.045.04.59.529.088.083.546.493.018.016.017.015.071.064.517.468.05.045.529.482.063.057.16.146.341.311.093.083.1.091.471.431.005.005.007.006.023.021.546.5.077.07.32.293c7.062-16.635,19.063-35.464,30.739-51.542l-.037-.013a128.51,128.51,0,0,0-42.185-7.327A5.651,5.651,0,0,0,117.99,13.878Z" transform="translate(37.844 4.814)"/>
        <path id="Path_5494" data-name="Path 5494" class="cls-21" d="M102.23,30.266l-.163.2-.006.008-.16.19-.013.015-.157.185-.018.023-.153.179-.026.03-.149.174-.033.038-.143.167c-.113.132-.227.265-.341.4l-.021.025-.157.187-.023.027-.143.167-.043.053-.142.167-.037.044-.15.183-.023.029-.156.193-.025.031-.141.178-.043.054-.143.182-.023.031-.151.2-.022.029c-.051.068-.1.135-.152.2l-.013.018-.156.219L99.1,34.1c-.053.073-.1.146-.156.219l-.007.011c-2.421,3.465-3.559,7.527,2.623,11.986h0c14.089-28.933,23.074-22.128,35.778-32.961q-1.24-.155-2.485-.289l-.277-.029h-.013q-.6-.063-1.205-.12l-.464-.043-.918-.083-.668-.054c-.258-.02-.516-.04-.774-.058l-.825-.058-.6-.038q-.5-.031-1-.058l-.437-.023q-.584-.03-1.163-.054l-.285-.012q-.643-.025-1.286-.044l-.185-.006q-.692-.018-1.386-.032h-.1c-.484-.009-.968-.014-1.452-.018h-.033a5.681,5.681,0,0,0-3.8,1.542Z" transform="translate(37.844 4.811)"/>
        <path id="Path_5495" data-name="Path 5495" class="cls-23" d="M114.871,13.879l-7.878,8.192c-7.881,8.193,8.734,18.28,28.671,25.517,22.06,8.013,39.668-8.688,70.522,11.121l-.25-9.1a6.827,6.827,0,0,0-1.8-4.09l-.347-.314q-.26-.235-.523-.467l-.634-.559-.5-.437q-.328-.285-.659-.568l-.5-.424q-.334-.285-.674-.567-.243-.2-.487-.407l-.7-.572-.48-.39q-.364-.3-.732-.584l-.441-.351q-.394-.311-.79-.618l-.4-.313q-.412-.316-.827-.63l-.38-.289q-.456-.341-.913-.679l-.291-.215q-.536-.393-1.074-.78l-.145-.105q-2.494-1.787-5.061-3.447l-.08-.056q-.593-.382-1.186-.756l-.189-.119c-.361-.226-.722-.452-1.085-.674l-.279-.167q-.5-.307-1.009-.611l-.321-.189q-.482-.287-.967-.57l-.373-.215q-.466-.27-.933-.535c-.126-.072-.25-.142-.38-.214q-.466-.261-.933-.52l-.4-.218q-.453-.25-.908-.492l-.437-.232q-.446-.237-.893-.471l-.434-.225-.9-.462-.441-.222c-.3-.151-.6-.3-.906-.45l-.435-.213-.918-.442-.437-.208c-.31-.146-.621-.29-.932-.434l-.422-.2c-.319-.146-.639-.29-.959-.433l-.409-.184c-.334-.149-.673-.3-1.011-.442l-.35-.152q-.538-.232-1.08-.457l-.3-.127q-.591-.245-1.185-.485l-.2-.083q-2.108-.848-4.245-1.619l-.024-.008q-.686-.25-1.376-.487l-.311-.107c-.364-.125-.728-.25-1.093-.372l-.452-.149q-.478-.159-.957-.314c-.174-.056-.347-.11-.521-.167-.3-.1-.6-.19-.9-.283-.181-.057-.363-.111-.545-.167-.295-.089-.589-.179-.885-.265l-.558-.167q-.437-.128-.876-.25l-.578-.162c-.285-.079-.572-.159-.858-.235-.2-.055-.4-.109-.6-.161l-.829-.218-.633-.162q-.411-.1-.824-.205l-.624-.152q-.417-.1-.835-.2l-.625-.144c-.275-.063-.551-.124-.827-.186l-.645-.141q-.411-.088-.821-.174c-.215-.045-.428-.09-.643-.134l-.828-.167-.644-.125c-.283-.054-.568-.107-.851-.159l-.616-.113q-.432-.078-.866-.151l-.624-.108c-.28-.047-.562-.092-.843-.137l-.644-.1c-.3-.046-.591-.089-.886-.133-.2-.03-.4-.06-.6-.088-.363-.053-.726-.1-1.091-.15-.131-.018-.262-.038-.394-.054q-.746-.1-1.495-.188l-.316-.036q-.592-.07-1.184-.134c-.19-.021-.381-.039-.573-.058-.306-.032-.613-.064-.918-.093-.22-.022-.441-.04-.661-.06-.284-.026-.568-.052-.851-.076-.217-.018-.434-.035-.651-.052-.286-.023-.573-.046-.86-.067-.227-.017-.454-.031-.682-.046l-.819-.054-.717-.041-.8-.043-.714-.033-.8-.033c-.238-.009-.477-.017-.715-.024-.27-.009-.54-.017-.811-.024l-.716-.016-.8-.015c-.241,0-.482-.005-.724-.008h-.553a5.713,5.713,0,0,0-3.673,1.539Z" transform="translate(40.963 4.812)"/>
        <path id="Path_5496" data-name="Path 5496" class="cls-24" d="M194.3,37.538c-5.563-4.591,6.23,3.628,7.6,6.206a9.426,9.426,0,0,1,.841,6.149l-3.323-2.661C199.026,44.866,199.859,42.127,194.3,37.538Z" transform="translate(75.226 14.111)"/>
        <path id="Path_5497" data-name="Path 5497" class="cls-25" d="M99.5,27.375a17.072,17.072,0,0,0-1.878,2.861c.295,2.337,1.946,4.814,5.945,7.393A216.56,216.56,0,0,1,134.433,62c4.95,4.545,8.431,7.743,11.357,8.88s7.649,1.125,14.364,1.109a215.621,215.621,0,0,1,39.2,2.838c4.69.8,7.577.083,9.366-1.447A17.135,17.135,0,0,0,209.257,70c-1.13,2.619-3.693,4.366-9.653,3.355A216.977,216.977,0,0,0,160.149,70.5c-6.544.015-11.148.025-13.818-1.012s-6.063-4.154-10.888-8.584a217.225,217.225,0,0,0-31.07-24.531C99.291,33.093,98.572,30.073,99.5,27.375Z" transform="translate(38.087 10.68)"/>
        <path id="Path_5498" data-name="Path 5498" class="cls-26" d="M199.2,41.8a9.054,9.054,0,0,1,2.1,2.175c4.289,7.24.129,14.357-4.055,21.514-3.306,5.656-6.628,11.338-6.285,17.445l2.488-.134c-.3-5.366,2.83-10.722,5.946-16.054,4.557-7.795,9.085-15.541,4.05-24.04-1.586-2.68-7.168-6.037-15.379-9.912Z" transform="translate(73.373 12.793)"/>
        <path id="Path_5499" data-name="Path 5499" class="cls-11" d="M190.408,81.094l2.121-.114c-.3-5.366,2.83-10.722,5.946-16.054,4.557-7.795,9.085-15.541,4.05-24.04a12.766,12.766,0,0,0-3.605-3.44c5.052,6.245,5.982,11.5,3.541,17.876-2.62,6.845-5.961,9.316-9.632,18.8C191.721,76.99,190.926,79.268,190.408,81.094Z" transform="translate(74.288 14.61)"/>
        <path id="Path_5500" data-name="Path 5500" class="cls-11" d="M193.076,66.218a4.159,4.159,0,0,1,.313,7.851h0a99.662,99.662,0,0,0,12.187,27.067c1.892,3.047-14.7,2.621-15.56-.144-2.777-8.961-2.272-18.056-.24-27.211h0a4.157,4.157,0,0,1,3.3-7.564Z" transform="translate(73.243 25.766)"/>
        <path id="Path_5501" data-name="Path 5501" class="cls-26" d="M195.064,102.965c-2.612-.353-4.754-1.026-5.047-1.973-2.777-8.961-2.272-18.056-.24-27.211h0a4.157,4.157,0,0,1,3.031-7.636,4.159,4.159,0,0,0-.274,8.032c.089.027.177.05.266.071a4.14,4.14,0,0,1-1.068.1h0C190.609,84.917,191.41,92.217,195.064,102.965Z" transform="translate(73.242 25.765)"/>
        <path id="Path_5502" data-name="Path 5502" class="cls-26" d="M203.879,97.66c-.209.067-.437.129-.684.184-.417-.764-.8-1.473-1.143-2.1q-.577-1.073-1.149-2.158a.349.349,0,1,1,.616-.327q.556,1.057,1.148,2.154c.427.791.817,1.511,1.184,2.182a.447.447,0,0,1,.028.069Zm-2.323.437a.326.326,0,0,0-.036-.124c-.655-1.3-1.237-2.588-1.778-3.876-.548-1.3-1.053-2.6-1.55-3.923a.348.348,0,0,0-.652.245c.506,1.342,1.015,2.653,1.558,3.945.533,1.265,1.1,2.524,1.735,3.792.25-.017.489-.038.723-.062Zm-2.29.123q-.362.005-.73,0c-.791-1.8-1.493-3.582-2.123-5.391-.645-1.851-1.217-3.734-1.737-5.683a.348.348,0,1,1,.673-.179c.512,1.92,1.078,3.784,1.722,5.63s1.356,3.656,2.166,5.482a.343.343,0,0,1,.03.139Zm-2.274-.051a.352.352,0,0,0-.022-.142c-.861-2.32-1.72-4.791-2.477-7.314a70.905,70.905,0,0,1-1.872-7.613.349.349,0,1,0-.686.124,71.768,71.768,0,0,0,1.891,7.691c.746,2.485,1.586,4.917,2.436,7.206Q196.625,98.15,196.991,98.169Zm-2.254-.2a.357.357,0,0,0-.017-.161c-.568-1.615-1.085-3.219-1.539-4.8s-.845-3.166-1.157-4.728a.348.348,0,1,0-.682.137c.315,1.578.71,3.172,1.169,4.783.445,1.556.946,3.113,1.489,4.666q.361.057.735.1Zm-2.325-.412c-.257-.062-.5-.127-.735-.2a64.813,64.813,0,0,1-2.111-9.478,42.38,42.38,0,0,1-.4-8.631.348.348,0,0,1,.7.048,42.058,42.058,0,0,0,.393,8.487,64.242,64.242,0,0,0,2.157,9.586A.359.359,0,0,1,192.413,97.553Z" transform="translate(73.775 30.791)"/>
        <path id="Path_5503" data-name="Path 5503" class="cls-27" d="M73.5,96.9h52.072a.45.45,0,0,1,.448.449V109.3a.451.451,0,0,1-.448.45H73.5a.451.451,0,0,1-.448-.45V97.352A.45.45,0,0,1,73.5,96.9Z" transform="translate(28.502 37.806)"/>
        <path id="Path_5504" data-name="Path 5504" class="cls-28" d="M73.055,97.484H96.528V108.76H73.518a.437.437,0,0,1-.463-.393Z" transform="translate(28.502 38.033)"/>
        <rect id="Rectangle_2762" data-name="Rectangle 2762" class="cls-29" width="8.374" height="11.275" transform="translate(141.549 135.517)"/>
        <path id="Path_5505" data-name="Path 5505" class="cls-30" d="M115.619,97.484V108.76H113.2V97.484Zm-5.038,0V108.76H108.16V97.484Zm-5.038,0V108.76h-2.416V97.484Zm-5.038,0V108.76H98.083V97.484Zm-5.038,0V108.76H93.049V97.484Z" transform="translate(36.303 38.033)"/>
        <path id="Path_5506" data-name="Path 5506" class="cls-31" d="M82.384,97.484V108.76H79.963V97.484Zm-5.038,0V108.76H74.925V97.484Z" transform="translate(29.232 38.033)"/>
        <path id="Path_5507" data-name="Path 5507" class="cls-32" d="M94.67,97.484V108.76H92.255V97.484Zm-5.038,0V108.76H87.211V97.484Zm-5.038,0V108.76H82.173V97.484Z" transform="translate(32.06 38.033)"/>
        <path id="Path_5508" data-name="Path 5508" class="cls-33" d="M126.023,105.6v.359a.451.451,0,0,1-.448.45H73.5a.451.451,0,0,1-.448-.45V105.6Z" transform="translate(28.502 41.198)"/>
        <path id="Path_5509" data-name="Path 5509" class="cls-34" d="M126.023,97.711v-.359a.45.45,0,0,0-.448-.449H73.5a.45.45,0,0,0-.448.449v.359Z" transform="translate(28.502 37.806)"/>
        <rect id="Rectangle_2763" data-name="Rectangle 2763" class="cls-35" width="12.731" height="0.809" transform="translate(137.983 134.709)"/>
        <path id="Path_5510" data-name="Path 5510" class="cls-30" d="M93.245,96.9H73.44a.422.422,0,0,0-.386.449v.359h20.19Z" transform="translate(28.502 37.806)"/>
        <path id="Path_5511" data-name="Path 5511" class="cls-27" d="M71.81,87.665h52.072a.451.451,0,0,1,.448.45v11.945a.451.451,0,0,1-.448.45H71.81a.45.45,0,0,1-.448-.45V88.115a.451.451,0,0,1,.448-.45Z" transform="translate(27.842 34.202)"/>
        <path id="Path_5512" data-name="Path 5512" class="cls-28" d="M71.363,88.245H94.837V99.52H71.823a.437.437,0,0,1-.463-.393Z" transform="translate(27.841 34.429)"/>
        <rect id="Rectangle_2764" data-name="Rectangle 2764" class="cls-29" width="8.374" height="11.275" transform="translate(139.196 122.673)"/>
        <path id="Path_5513" data-name="Path 5513" class="cls-30" d="M113.927,88.245V99.52h-2.416V88.245Zm-5.038,0V99.52h-2.421V88.245Zm-5.038,0V99.52h-2.416V88.245Zm-5.038,0V99.52H96.392V88.245Zm-5.038,0V99.52H91.353V88.245Z" transform="translate(35.642 34.429)"/>
        <path id="Path_5514" data-name="Path 5514" class="cls-31" d="M80.691,88.245V99.52H78.271V88.245Zm-5.038,0V99.52H73.233V88.245Z" transform="translate(28.572 34.429)"/>
        <path id="Path_5515" data-name="Path 5515" class="cls-32" d="M92.977,88.245V99.52H90.561V88.245Zm-5.038,0V99.52H85.518V88.245Zm-5.039,0V99.52H80.484V88.245Z" transform="translate(31.401 34.429)"/>
        <path id="Path_5516" data-name="Path 5516" class="cls-33" d="M124.33,96.356v.359a.45.45,0,0,1-.448.45H71.81a.45.45,0,0,1-.448-.45v-.359Z" transform="translate(27.842 37.593)"/>
        <path id="Path_5517" data-name="Path 5517" class="cls-34" d="M124.33,88.472v-.359a.451.451,0,0,0-.448-.45H71.81a.451.451,0,0,0-.448.45v.359Z" transform="translate(27.842 34.202)"/>
        <rect id="Rectangle_2765" data-name="Rectangle 2765" class="cls-35" width="12.731" height="0.808" transform="translate(135.63 121.865)"/>
        <path id="Path_5518" data-name="Path 5518" class="cls-30" d="M91.552,87.665h-19.8a.423.423,0,0,0-.386.45v.359h20.19Z" transform="translate(27.842 34.202)"/>
        <path id="Path_5519" data-name="Path 5519" class="cls-27" d="M76.276,78.424h52.071a.45.45,0,0,1,.449.449V90.819a.45.45,0,0,1-.449.449H76.276a.45.45,0,0,1-.448-.449V78.873A.45.45,0,0,1,76.276,78.424Z" transform="translate(29.584 30.597)"/>
        <path id="Path_5520" data-name="Path 5520" class="cls-28" d="M75.828,79.005H99.3V90.281H76.291a.434.434,0,0,1-.463-.393Z" transform="translate(29.584 30.824)"/>
        <rect id="Rectangle_2766" data-name="Rectangle 2766" class="cls-29" width="8.374" height="11.275" transform="translate(145.403 109.829)"/>
        <path id="Path_5521" data-name="Path 5521" class="cls-30" d="M118.391,79.005V90.281h-2.416V79.005Zm-5.038,0V90.281h-2.416V79.005Zm-5.038,0V90.281H105.9V79.005Zm-5.038,0V90.281H100.86V79.005Zm-5.038,0V90.281H95.822V79.005Z" transform="translate(37.385 30.824)"/>
        <path id="Path_5522" data-name="Path 5522" class="cls-31" d="M85.154,79.005V90.281H82.739V79.005Zm-5.038,0V90.281H77.7V79.005Z" transform="translate(30.315 30.824)"/>
        <path id="Path_5523" data-name="Path 5523" class="cls-32" d="M97.441,79.005V90.281H95.026V79.005Zm-5.038,0V90.281H89.987V79.005Zm-5.038,0V90.281H84.949V79.005Z" transform="translate(33.143 30.824)"/>
        <path id="Path_5524" data-name="Path 5524" class="cls-33" d="M128.8,87.117v.359a.45.45,0,0,1-.449.449H76.276a.45.45,0,0,1-.448-.449v-.359Z" transform="translate(29.584 33.988)"/>
        <path id="Path_5525" data-name="Path 5525" class="cls-34" d="M128.8,79.232v-.359a.45.45,0,0,0-.449-.449H76.276a.45.45,0,0,0-.448.449v.359Z" transform="translate(29.584 30.597)"/>
        <rect id="Rectangle_2767" data-name="Rectangle 2767" class="cls-35" width="12.731" height="0.809" transform="translate(141.837 109.021)"/>
        <path id="Path_5526" data-name="Path 5526" class="cls-30" d="M96.018,78.424h-19.8a.422.422,0,0,0-.386.449v.359h20.19Z" transform="translate(29.584 30.597)"/>
        <path id="Path_5527" data-name="Path 5527" class="cls-27" d="M75.029,69.184H127.1a.45.45,0,0,1,.448.449V81.579a.451.451,0,0,1-.448.45H75.029a.45.45,0,0,1-.448-.45V69.633A.45.45,0,0,1,75.029,69.184Z" transform="translate(29.098 26.992)"/>
        <path id="Path_5528" data-name="Path 5528" class="cls-28" d="M74.581,69.766H98.055V81.042H75.045a.434.434,0,0,1-.464-.393Z" transform="translate(29.098 27.219)"/>
        <rect id="Rectangle_2768" data-name="Rectangle 2768" class="cls-29" width="8.374" height="11.275" transform="translate(143.671 96.985)"/>
        <path id="Path_5529" data-name="Path 5529" class="cls-30" d="M117.145,69.766V81.042h-2.416V69.766Zm-5.038,0V81.042h-2.416V69.766Zm-5.038,0V81.042h-2.416V69.766Zm-5.038,0V81.042H99.614V69.766Zm-5.038,0V81.042H94.576V69.766Z" transform="translate(36.899 27.219)"/>
        <path id="Path_5530" data-name="Path 5530" class="cls-31" d="M83.908,69.766V81.042H81.493V69.766Zm-5.038,0V81.042H76.455V69.766Z" transform="translate(29.829 27.219)"/>
        <path id="Path_5531" data-name="Path 5531" class="cls-32" d="M96.2,69.766V81.042H93.781V69.766Zm-5.038,0V81.042H88.743V69.766Zm-5.038,0V81.042H83.7V69.766Z" transform="translate(32.655 27.219)"/>
        <path id="Path_5532" data-name="Path 5532" class="cls-33" d="M127.549,77.878v.359a.45.45,0,0,1-.448.45H75.029a.451.451,0,0,1-.448-.45v-.359Z" transform="translate(29.098 30.384)"/>
        <path id="Path_5533" data-name="Path 5533" class="cls-34" d="M127.549,69.993v-.36a.45.45,0,0,0-.448-.449H75.029a.45.45,0,0,0-.448.449v.36Z" transform="translate(29.098 26.992)"/>
        <rect id="Rectangle_2769" data-name="Rectangle 2769" class="cls-35" width="12.731" height="0.809" transform="translate(140.105 96.176)"/>
        <path id="Path_5534" data-name="Path 5534" class="cls-30" d="M94.773,69.184H74.967a.422.422,0,0,0-.386.449v.36H94.773Z" transform="translate(29.098 26.992)"/>
        <path id="Path_5535" data-name="Path 5535" class="cls-27" d="M72.891,59.945h52.071a.45.45,0,0,1,.448.449V72.34a.45.45,0,0,1-.448.449H72.891a.45.45,0,0,1-.449-.449V60.394a.45.45,0,0,1,.449-.449Z" transform="translate(28.263 23.387)"/>
        <path id="Path_5536" data-name="Path 5536" class="cls-28" d="M72.442,60.525H95.916V71.8H72.9a.434.434,0,0,1-.464-.392Z" transform="translate(28.263 23.614)"/>
        <rect id="Rectangle_2770" data-name="Rectangle 2770" class="cls-29" width="8.374" height="11.275" transform="translate(140.697 84.141)"/>
        <path id="Path_5537" data-name="Path 5537" class="cls-30" d="M115.005,60.525V71.8H112.59V60.525Zm-5.038,0V71.8h-2.416V60.525Zm-5.038,0V71.8h-2.416V60.525Zm-5.038,0V71.8H97.475V60.525Zm-5.038,0V71.8H92.437V60.525Z" transform="translate(36.064 23.614)"/>
        <path id="Path_5538" data-name="Path 5538" class="cls-31" d="M81.771,60.525V71.8H79.35V60.525Zm-5.038,0V71.8H74.317V60.525Z" transform="translate(28.995 23.614)"/>
        <path id="Path_5539" data-name="Path 5539" class="cls-32" d="M94.056,60.525V71.8H91.64V60.525Zm-5.038,0V71.8H86.6V60.525Zm-5.038,0V71.8H81.564V60.525Z" transform="translate(31.822 23.614)"/>
        <path id="Path_5540" data-name="Path 5540" class="cls-33" d="M125.406,68.637V69a.45.45,0,0,1-.448.449H72.891A.45.45,0,0,1,72.442,69v-.36Z" transform="translate(28.263 26.779)"/>
        <path id="Path_5541" data-name="Path 5541" class="cls-34" d="M125.406,60.752v-.359a.45.45,0,0,0-.448-.449H72.891a.45.45,0,0,0-.449.449v.359Z" transform="translate(28.263 23.387)"/>
        <rect id="Rectangle_2771" data-name="Rectangle 2771" class="cls-35" width="12.731" height="0.808" transform="translate(137.131 83.333)"/>
        <path id="Path_5542" data-name="Path 5542" class="cls-30" d="M92.632,59.945h-19.8a.422.422,0,0,0-.386.449v.359h20.19Z" transform="translate(28.263 23.387)"/>
        <path id="Path_5543" data-name="Path 5543" class="cls-27" d="M71.007,50.671h52.071a.45.45,0,0,1,.449.449V63.065a.45.45,0,0,1-.449.449H71.007a.45.45,0,0,1-.449-.449V51.12a.45.45,0,0,1,.449-.449Z" transform="translate(27.528 19.769)"/>
        <path id="Path_5544" data-name="Path 5544" class="cls-28" d="M70.558,51.252H94.032V62.528H71.022a.434.434,0,0,1-.464-.393Z" transform="translate(27.528 19.996)"/>
        <rect id="Rectangle_2772" data-name="Rectangle 2772" class="cls-29" width="8.374" height="11.275" transform="translate(138.077 71.248)"/>
        <path id="Path_5545" data-name="Path 5545" class="cls-30" d="M113.121,51.252V62.528h-2.416V51.252Zm-5.038,0V62.528h-2.416V51.252Zm-5.038,0V62.528h-2.416V51.252Zm-5.038,0V62.528H95.591V51.252Zm-5.038,0V62.528H90.552V51.252Z" transform="translate(35.329 19.996)"/>
        <path id="Path_5546" data-name="Path 5546" class="cls-31" d="M79.885,51.252V62.528H77.469V51.252Zm-5.038,0V62.528H72.431V51.252Z" transform="translate(28.259 19.996)"/>
        <path id="Path_5547" data-name="Path 5547" class="cls-32" d="M92.172,51.252V62.528H89.756V51.252Zm-5.038,0V62.528H84.718V51.252Zm-5.038,0V62.528H79.679V51.252Z" transform="translate(31.087 19.996)"/>
        <path id="Path_5548" data-name="Path 5548" class="cls-33" d="M123.526,59.363v.362a.451.451,0,0,1-.449.45H71.007a.451.451,0,0,1-.449-.45v-.359Z" transform="translate(27.528 23.16)"/>
        <path id="Path_5549" data-name="Path 5549" class="cls-34" d="M123.526,51.479V51.12a.45.45,0,0,0-.449-.449H71.007a.45.45,0,0,0-.449.449v.359Z" transform="translate(27.528 19.769)"/>
        <rect id="Rectangle_2773" data-name="Rectangle 2773" class="cls-35" width="12.731" height="0.809" transform="translate(134.511 70.44)"/>
        <path id="Path_5550" data-name="Path 5550" class="cls-30" d="M90.75,50.671H70.944a.422.422,0,0,0-.386.449v.359H90.75Z" transform="translate(27.528 19.769)"/>
        <path id="Path_5551" data-name="Path 5551" class="cls-27" d="M89.29,96.9H37.219a.45.45,0,0,0-.448.449V109.3a.451.451,0,0,0,.448.45H89.29a.451.451,0,0,0,.448-.45V97.352A.45.45,0,0,0,89.29,96.9Z" transform="translate(14.346 37.806)"/>
        <path id="Path_5552" data-name="Path 5552" class="cls-28" d="M81.464,97.484H57.987V108.76H81a.437.437,0,0,0,.463-.393Z" transform="translate(22.624 38.033)"/>
        <rect id="Rectangle_2774" data-name="Rectangle 2774" class="cls-29" width="8.374" height="11.275" transform="translate(55.72 135.517)"/>
        <path id="Path_5553" data-name="Path 5553" class="cls-30" d="M38.643,97.484V108.76H41.06V97.484Zm5.038,0V108.76H46.1V97.484Zm5.038,0V108.76h2.421V97.484Zm5.038,0V108.76h2.421V97.484Zm5.038,0V108.76h2.421V97.484Z" transform="translate(15.077 38.033)"/>
        <path id="Path_5554" data-name="Path 5554" class="cls-31" d="M67.638,97.484V108.76h2.421V97.484Zm5.038,0V108.76H75.1V97.484Z" transform="translate(26.389 38.033)"/>
        <path id="Path_5555" data-name="Path 5555" class="cls-32" d="M56.765,97.484V108.76H59.18V97.484Zm5.038,0V108.76h2.421V97.484Zm5.038,0V108.76h2.421V97.484Z" transform="translate(22.147 38.033)"/>
        <path id="Path_5556" data-name="Path 5556" class="cls-33" d="M36.771,105.6v.359a.451.451,0,0,0,.448.45H89.29a.451.451,0,0,0,.448-.45V105.6Z" transform="translate(14.346 41.198)"/>
        <path id="Path_5557" data-name="Path 5557" class="cls-34" d="M36.771,97.711v-.359a.45.45,0,0,1,.448-.449H89.29a.45.45,0,0,1,.448.449v.359Z" transform="translate(14.346 37.806)"/>
        <rect id="Rectangle_2775" data-name="Rectangle 2775" class="cls-35" width="12.731" height="0.809" transform="translate(54.928 134.709)"/>
        <path id="Path_5558" data-name="Path 5558" class="cls-30" d="M60.349,96.9h19.8a.422.422,0,0,1,.386.449v.359H60.349Z" transform="translate(23.545 37.806)"/>
        <path id="Path_5559" data-name="Path 5559" class="cls-27" d="M84.555,87.665H32.485a.451.451,0,0,0-.449.45v11.945a.451.451,0,0,0,.449.45H84.555a.451.451,0,0,0,.449-.45V88.115a.451.451,0,0,0-.449-.45Z" transform="translate(12.499 34.202)"/>
        <path id="Path_5560" data-name="Path 5560" class="cls-28" d="M76.727,88.245H53.252V99.52h23.01a.434.434,0,0,0,.464-.393Z" transform="translate(20.776 34.429)"/>
        <rect id="Rectangle_2776" data-name="Rectangle 2776" class="cls-29" width="8.374" height="11.275" transform="translate(49.138 122.673)"/>
        <path id="Path_5561" data-name="Path 5561" class="cls-30" d="M33.909,88.245V99.52h2.416V88.245Zm5.038,0V99.52H41.36V88.245Zm5.038,0V99.52H46.4V88.245Zm5.038,0V99.52h2.416V88.245Zm5.038,0V99.52h2.416V88.245Z" transform="translate(13.23 34.429)"/>
        <path id="Path_5562" data-name="Path 5562" class="cls-31" d="M62.9,88.245V99.52h2.416V88.245Zm5.038,0V99.52h2.416V88.245Z" transform="translate(24.542 34.429)"/>
        <path id="Path_5563" data-name="Path 5563" class="cls-32" d="M52.03,88.245V99.52h2.416V88.245Zm5.038,0V99.52h2.416V88.245Zm5.038,0V99.52h2.416V88.245Z" transform="translate(20.3 34.429)"/>
        <path id="Path_5564" data-name="Path 5564" class="cls-33" d="M32.035,96.356v.359a.451.451,0,0,0,.449.45H84.555a.451.451,0,0,0,.449-.45v-.359Z" transform="translate(12.499 37.593)"/>
        <path id="Path_5565" data-name="Path 5565" class="cls-34" d="M32.035,88.472v-.359a.451.451,0,0,1,.449-.45H84.555a.451.451,0,0,1,.449.45v.359Z" transform="translate(12.499 34.202)"/>
        <rect id="Rectangle_2777" data-name="Rectangle 2777" class="cls-35" width="12.731" height="0.808" transform="translate(48.346 121.865)"/>
        <path id="Path_5566" data-name="Path 5566" class="cls-30" d="M55.614,87.665h19.8a.423.423,0,0,1,.386.45v.359H55.614Z" transform="translate(21.698 34.202)"/>
        <path id="Path_5567" data-name="Path 5567" class="cls-27" d="M88.389,78.424H36.318a.45.45,0,0,0-.449.449V90.819a.45.45,0,0,0,.449.449H88.389a.45.45,0,0,0,.448-.449V78.873A.45.45,0,0,0,88.389,78.424Z" transform="translate(13.994 30.597)"/>
        <path id="Path_5568" data-name="Path 5568" class="cls-28" d="M80.564,79.005H57.086V90.281H80.1a.437.437,0,0,0,.463-.393Z" transform="translate(22.272 30.824)"/>
        <rect id="Rectangle_2778" data-name="Rectangle 2778" class="cls-29" width="8.374" height="11.275" transform="translate(54.467 109.829)"/>
        <path id="Path_5569" data-name="Path 5569" class="cls-30" d="M37.742,79.005V90.281h2.416V79.005Zm5.039,0V90.281H45.2V79.005Zm5.037,0V90.281h2.421V79.005Zm5.038,0V90.281h2.421V79.005Zm5.039,0V90.281h2.419V79.005Z" transform="translate(14.725 30.824)"/>
        <path id="Path_5570" data-name="Path 5570" class="cls-31" d="M66.737,79.005V90.281h2.416V79.005Zm5.038,0V90.281h2.416V79.005Z" transform="translate(26.037 30.824)"/>
        <path id="Path_5571" data-name="Path 5571" class="cls-32" d="M55.864,79.005V90.281H58.28V79.005Zm5.038,0V90.281h2.416V79.005Zm5.038,0V90.281h2.412V79.005Z" transform="translate(21.795 30.824)"/>
        <path id="Path_5572" data-name="Path 5572" class="cls-33" d="M35.869,87.117v.359a.45.45,0,0,0,.449.449H88.389a.45.45,0,0,0,.448-.449v-.359Z" transform="translate(13.994 33.988)"/>
        <path id="Path_5573" data-name="Path 5573" class="cls-34" d="M35.869,79.232v-.359a.45.45,0,0,1,.449-.449H88.389a.45.45,0,0,1,.448.449v.359Z" transform="translate(13.994 30.597)"/>
        <rect id="Rectangle_2779" data-name="Rectangle 2779" class="cls-35" width="12.731" height="0.809" transform="translate(53.676 109.021)"/>
        <path id="Path_5574" data-name="Path 5574" class="cls-30" d="M59.448,78.424h19.8a.422.422,0,0,1,.386.449v.359H59.448Z" transform="translate(23.194 30.597)"/>
        <ellipse id="Ellipse_79" data-name="Ellipse 79" class="cls-1" cx="9.355" cy="9.373" rx="9.355" ry="9.373" transform="translate(137.235 87.611)"/>
        <ellipse id="Ellipse_80" data-name="Ellipse 80" class="cls-36" cx="26.463" cy="22.949" rx="26.463" ry="22.949" transform="translate(76.531 106.834)"/>
        <ellipse id="Ellipse_81" data-name="Ellipse 81" class="cls-37" cx="26.484" cy="26.535" rx="26.484" ry="26.535" transform="translate(84.446 99.814)"/>
        <path id="Path_5575" data-name="Path 5575" class="cls-38" d="M84.16,71.8a26.545,26.545,0,0,1,17.254,46.665A93.781,93.781,0,0,1,68.621,76.848,26.33,26.33,0,0,1,84.16,71.8Z" transform="translate(26.773 28.013)"/>
        <ellipse id="Ellipse_82" data-name="Ellipse 82" class="cls-39" cx="18.239" cy="18.273" rx="18.239" ry="18.273" transform="translate(92.691 108.075)"/>
        <path id="Path_5576" data-name="Path 5576" class="cls-40" d="M84.918,113.133a18.281,18.281,0,0,1-11.546-32.42,18.256,18.256,0,0,0,24.368,27.14,18.16,18.16,0,0,1-12.823,5.28Z" transform="translate(26.015 31.49)"/>
        <path id="Path_5577" data-name="Path 5577" class="cls-41" d="M83.424,77.744a18.282,18.282,0,0,1,9.716,33.741c17.7-17.515-2.133-41.952-22.633-28.368a18.164,18.164,0,0,1,12.917-5.373Z" transform="translate(27.508 30.332)"/>
        <path id="Path_5578" data-name="Path 5578" class="cls-27" d="M83.875,80.421a14.551,14.551,0,1,1-14.524,14.55A14.538,14.538,0,0,1,83.875,80.421Z" transform="translate(27.057 31.376)"/>
        <path id="Path_5579" data-name="Path 5579" class="cls-38" d="M82.665,80.421a14.559,14.559,0,0,1,7.4,27.073A77.751,77.751,0,0,1,72.452,84.623,14.467,14.467,0,0,1,82.665,80.421Z" transform="translate(28.267 31.376)"/>
        <path id="Path_5580" data-name="Path 5580" class="cls-27" d="M95.025,100.315a14.577,14.577,0,0,1-2.326,3.916A77.769,77.769,0,0,1,75.362,81.753a14.426,14.426,0,0,1,4.1-1.227,77.81,77.81,0,0,0,15.561,19.789Z" transform="translate(29.402 31.417)"/>
        <path id="Path_5581" data-name="Path 5581" class="cls-6" d="M84.893,103.862a9.7,9.7,0,0,1-9.683-9.7,9.7,9.7,0,0,1-9.683,9.7,9.7,9.7,0,0,1,9.683,9.7A9.7,9.7,0,0,1,84.893,103.862Z" transform="translate(25.566 36.736)"/>
        <ellipse id="Ellipse_83" data-name="Ellipse 83" class="cls-1" cx="9.355" cy="9.372" rx="9.355" ry="9.372" transform="translate(129.019 61.876)"/>
        <path id="Path_5582" data-name="Path 5582" class="cls-27" d="M11.666,114.441,38.685,67.554a.466.466,0,0,1,.635-.167l10.716,6.2a.468.468,0,0,1,.167.637L23.185,121.106a.467.467,0,0,1-.636.167l-10.716-6.194a.47.47,0,0,1-.167-.638Z" transform="translate(4.527 26.266)"/>
        <path id="Path_5583" data-name="Path 5583" class="cls-28" d="M12,107.742,24.183,86.605,34.3,92.455l-11.936,20.72a.448.448,0,0,1-.593.214Z" transform="translate(4.682 33.789)"/>
        <path id="Path_5584" data-name="Path 5584" class="cls-42" d="M26.929,78.022l4.345-7.541,10.114,5.851-4.345,7.54Z" transform="translate(10.506 27.498)"/>
        <path id="Path_5585" data-name="Path 5585" class="cls-30" d="M34.09,69.186,44.2,75.037l-1.252,2.175L32.838,71.361Zm-2.614,4.537L30.224,75.9l10.114,5.85,1.252-2.175L31.476,73.723Zm-2.617,4.541,10.115,5.85-1.252,2.175L27.606,80.434l1.252-2.175ZM26.244,82.8l-1.252,2.175,10.114,5.851,1.252-2.175Zm-2.614,4.537,10.115,5.851L32.492,95.36,22.377,89.51Z" transform="translate(8.731 26.993)"/>
        <path id="Path_5586" data-name="Path 5586" class="cls-31" d="M16.841,95.3l10.115,5.85L25.7,103.321l-10.115-5.85Zm-2.614,4.537-1.252,2.175,10.115,5.851,1.252-2.176Z" transform="translate(5.062 37.179)"/>
        <path id="Path_5587" data-name="Path 5587" class="cls-32" d="M23.217,85.5l10.115,5.85L32.08,93.529l-10.115-5.85ZM20.6,90.04,19.35,92.215l10.115,5.851,1.252-2.175Zm-2.614,4.537L28.1,100.428,26.851,102.6,16.736,96.752Z" transform="translate(6.53 33.359)"/>
        <path id="Path_5588" data-name="Path 5588" class="cls-28" d="M43.1,71.709l.322.186a.468.468,0,0,1,.167.637L29.368,97.211l-.011-.083-.683-.394Z" transform="translate(11.187 27.977)"/>
        <path id="Path_5589" data-name="Path 5589" class="cls-31" d="M33.034,90.187,20.236,112.4a.467.467,0,0,1-.636.171l-.322-.187L32.34,89.712l.683.394Z" transform="translate(7.521 35.001)"/>
        <path id="Path_5590" data-name="Path 5590" class="cls-34" d="M39.642,67.569l-.322-.186a.466.466,0,0,0-.635.167L11.666,114.442a.47.47,0,0,0,.167.638l.322.186Z" transform="translate(4.527 26.265)"/>
        <path id="Path_5591" data-name="Path 5591" class="cls-43" d="M31.683,69.667,25.077,81.131l.725.419,6.607-11.464Z" transform="translate(9.784 27.18)"/>
        <path id="Path_5592" data-name="Path 5592" class="cls-30" d="M21.914,88.43,11.637,106.263a.445.445,0,0,0,.2.584l.322.186L22.639,88.849Z" transform="translate(4.522 34.501)"/>
        <ellipse id="Ellipse_84" data-name="Ellipse 84" class="cls-1" cx="7.265" cy="7.279" rx="7.265" ry="7.279" transform="translate(35.452 97.322)"/>
      </g>
    </g>
  </g>
</svg>
