<svg xmlns="http://www.w3.org/2000/svg" xmlns:xlink="http://www.w3.org/1999/xlink" width="210" height="202" viewBox="0 0 210 202">
  <defs>
    <style>
      .cls-1 {
        fill: none;
      }

      .cls-2 {
        clip-path: url(#clip-path);
      }

      .cls-3 {
        fill: url(#linear-gradient);
      }

      .cls-4 {
        fill: url(#linear-gradient-2);
      }

      .cls-16, .cls-17, .cls-5 {
        fill-rule: evenodd;
      }

      .cls-5 {
        fill: url(#linear-gradient-4);
      }

      .cls-6 {
        fill: #fff;
      }

      .cls-7 {
        fill: #7a3339;
      }

      .cls-10, .cls-8 {
        fill: #001c59;
      }

      .cls-9 {
        fill: #0f4281;
      }

      .cls-10 {
        opacity: 0.39;
      }

      .cls-11 {
        fill: url(#linear-gradient-5);
      }

      .cls-12 {
        fill: url(#linear-gradient-6);
      }

      .cls-13 {
        fill: #edccb7;
      }

      .cls-14 {
        fill: url(#linear-gradient-7);
      }

      .cls-15 {
        fill: url(#linear-gradient-8);
      }

      .cls-16 {
        fill: #d92526;
      }

      .cls-17 {
        fill: #b50009;
      }

      .cls-18 {
        fill: #b7d4e5;
      }
    </style>
    <clipPath id="clip-path">
      <rect id="Rectangle_2756" data-name="Rectangle 2756" class="cls-1" width="210" height="202" transform="translate(650 238.005)"/>
    </clipPath>
    <linearGradient id="linear-gradient" x1="0.525" y1="-0.119" x2="0.482" y2="0.945" gradientUnits="objectBoundingBox">
      <stop offset="0" stop-color="#037ae0"/>
      <stop offset="1" stop-color="#d8f0fa"/>
    </linearGradient>
    <linearGradient id="linear-gradient-2" y1="0.5" x2="1" y2="0.5" gradientUnits="objectBoundingBox">
      <stop offset="0" stop-color="#64b0d8"/>
      <stop offset="1" stop-color="#b7d4e5"/>
    </linearGradient>
    <linearGradient id="linear-gradient-4" x1="-2" y1="-0.514" x2="2.57" y2="1.338" gradientUnits="objectBoundingBox">
      <stop offset="0" stop-color="#e9ceb6"/>
      <stop offset="0.26" stop-color="#ebd2bd"/>
      <stop offset="0.65" stop-color="#efdfd1"/>
      <stop offset="1" stop-color="#f5eee9"/>
    </linearGradient>
    <linearGradient id="linear-gradient-5" x1="-2.896" y1="0.5" x2="-1.896" y2="0.5" xlink:href="#linear-gradient-4"/>
    <linearGradient id="linear-gradient-6" x1="-4.818" y1="0.5" x2="-3.818" y2="0.5" xlink:href="#linear-gradient-4"/>
    <linearGradient id="linear-gradient-7" x1="-2.66" y1="0.5" x2="-1.66" y2="0.5" xlink:href="#linear-gradient-4"/>
    <linearGradient id="linear-gradient-8" x1="-11.146" y1="0.501" x2="-10.148" y2="0.501" xlink:href="#linear-gradient-4"/>
  </defs>
  <g id="Mask_Group_3" data-name="Mask Group 3" class="cls-2" transform="translate(-650 -238.005)">
    <g id="Layer_2" data-name="Layer 2" transform="translate(654 238.005)">
      <g id="Layer_1" data-name="Layer 1">
        <path id="Path_5426" data-name="Path 5426" class="cls-3" d="M90.359,200.664l54.7-74.708L144.43,45h11.682L119.229,8.08,81.681,45.673H93.362v80.283L.779,168.918V202Z"/>
        <g id="Group_5995" data-name="Group 5995">
          <path id="Path_5427" data-name="Path 5427" class="cls-4" d="M87.837,165.1l38.279-39.149h-5.069L86,163.978Z"/>
        </g>
        <g id="Group_5996" data-name="Group 5996">
          <path id="Path_5428" data-name="Path 5428" class="cls-4" d="M74.429,164.541l42.844-38.585h-5.951L72.589,163.414Z"/>
        </g>
        <path id="Path_5429" data-name="Path 5429" class="cls-5" d="M105.23,121.358c-.549-.47-1.919-1.972-1.919-1.972h0c-1.7-2.45-4.322-11.615-5.941-14.686-.931-1.766-4.322-.636-3.535,2.2a31.751,31.751,0,0,0,8.05,13.661l.006.032s-.256,5.425.074,5.208a14.36,14.36,0,0,0,1.05-3.046A34.174,34.174,0,0,1,105.707,126c.369.711,1.258,2.394,1.286,1.945a23.852,23.852,0,0,0-.855-3.119s.831,1.414.909,1.625.568,1.265.778.766C108.089,126.589,105.886,121.918,105.23,121.358Z"/>
        <path id="Path_5430" data-name="Path 5430" class="cls-6" d="M89.861,85.974c4.834,2.174,5.934,11.769,8.336,18.079.961,2.525-4.672,3.939-4.871,3.419a144.4,144.4,0,0,1-4.716-14.989C87.749,89.021,88.779,85.487,89.861,85.974Z"/>
        <path id="Path_5431" data-name="Path 5431" class="cls-7" d="M75.719,114.509l-.791,5.036,15.682.714-.079-4.758Z"/>
        <path id="Path_5432" data-name="Path 5432" class="cls-8" d="M84.717,157.972c-.5,4.348-1.616,4.9-.162,7.428,1.136.6,3.558.3,4.822.289,3.075-.044,5.06.232,5.834-.707.388-.459.956-1.777.169-1.95-1.515-.331-1.9-.132-3.03-.886a39.084,39.084,0,0,1-3.954-3.232,5.429,5.429,0,0,1-2.038.34C85.8,159.11,84.779,157.44,84.717,157.972Z"/>
        <path id="Path_5433" data-name="Path 5433" class="cls-8" d="M77.284,157.308s.4,4.174,1.952,5.959c.629.472,1.041,1.414-.172,2.3a22.6,22.6,0,0,1-5.472.088c-1.2-.139-2.06-1.976-1.681-3.422a37.369,37.369,0,0,0,.953-5.555Z"/>
        <path id="Path_5434" data-name="Path 5434" class="cls-9" d="M77.7,158c.844-3.307,1.68-11.413,2.551-18.236.3-2.385-5.719-2.291-6.081-.888C73,143.4,72.428,152.7,72.286,156.767A7.941,7.941,0,0,0,77.7,158Z"/>
        <path id="Path_5435" data-name="Path 5435" class="cls-9" d="M84.5,159.734a11.417,11.417,0,0,0,3.195.334,7.548,7.548,0,0,0,2.323-.439c.55-4.51.755-15.587.965-21.741.05-1.49-5.135-4.092-5.849-.082a83.021,83.021,0,0,0-.931,21.737,1.767,1.767,0,0,0,.3.191Z"/>
        <path id="Path_5436" data-name="Path 5436" class="cls-9" d="M90.537,117.165c.065,2.156,1.226,18.857.118,21.457-.589,1.381-4.733,3.131-5.525-.817-.174-.861-2.643-15.563-2.436-17.243S90.537,117.165,90.537,117.165Z"/>
        <path id="Path_5437" data-name="Path 5437" class="cls-10" d="M85.481,153.324c-.018-3.952.32-7.886.457-11.832.06-1.762.078-3.541.033-5.32a2.611,2.611,0,0,0-.84,1.633,83.021,83.021,0,0,0-.931,21.737,1.768,1.768,0,0,0,.3.191,8.385,8.385,0,0,0,1.473.269A39.481,39.481,0,0,1,85.481,153.324Z"/>
        <path id="Path_5438" data-name="Path 5438" class="cls-9" d="M75.126,116.174c-1.16,3.737-1.709,22.091-1.307,23.909.636,2.893,5.9,2.555,6.3.237.831-4.876,3.726-19.873,3.473-21.063S75.126,116.174,75.126,116.174Z"/>
        <path id="Path_5439" data-name="Path 5439" class="cls-6" d="M76.193,86.437c3.9-1.562,10.465-1.584,13.071-.715,2.494.833,1.663,13.679,1.543,20.46-.077,4.444,1.783,11.183,1.783,11.183s-5.735,2.332-10.429,1.818c-4.279-.47-4.516-.943-7.75-2.649,0-2.141-.593-6.543-.476-9.16C74.336,98.694,72.63,87.864,76.193,86.437Z"/>
        <path id="Path_5440" data-name="Path 5440" class="cls-11" d="M86.473,86.246a3.172,3.172,0,0,0,.783-.935,28.162,28.162,0,0,0-8.54.387c.052.053.1.1.159.159A5.639,5.639,0,0,0,86.473,86.246Z"/>
        <path id="Path_5441" data-name="Path 5441" class="cls-12" d="M80.257,82.211,80.2,86.4h5.018l-.284-3.59Z"/>
        <path id="Path_5442" data-name="Path 5442" class="cls-13" d="M83.146,84.318a12.02,12.02,0,0,0,1.87-.495l-.081-1.01-4.678-.6-.022,1.7A6.5,6.5,0,0,0,83.146,84.318Z"/>
        <path id="Path_5443" data-name="Path 5443" class="cls-14" d="M74.29,73.052c.77-.544,1.579.049,1.995.8.755.643,1.359,1.908.819,2.712-.653.967-2.121.219-2.747-.457C73.6,75.285,73.285,73.766,74.29,73.052Z"/>
        <path id="Path_5444" data-name="Path 5444" class="cls-15" d="M90.876,74.74c-.554-.769-1.336-.434-1.818.17a2.2,2.2,0,0,0-1.147,2.409c.388,1.146,1.753.864,2.393.392A2.241,2.241,0,0,0,90.876,74.74Z"/>
        <path id="Path_5445" data-name="Path 5445" class="cls-9" d="M89.547,69.012c.062.825-.026,4.455-.255,7.605-.174,2.414-.559,4.935-2.952,6.18a7.006,7.006,0,0,1-8.54-1.5c-2.222-2.929-2.237-5.823-.636-12.644C77.6,68.328,89.547,69.012,89.547,69.012Z"/>
        <path id="Path_5446" data-name="Path 5446" class="cls-9" d="M92.928,70.358c-1.426-.535-2.656-.894-3.209-2-.357-.713.061-2.044-1.723-3,.717.039,1.539-1.187,1.546-2.141-13.837-1.287-14.111,4.7-14.111,4.7C74.159,69.1,74.037,71.29,74.3,72.606c.268-.267,1.372-.606,1.657-.95.3,1.7.583,2.849,1.287,3.548a16.017,16.017,0,0,1,1.246-4.782,3.229,3.229,0,0,0,3.762,2.3,4.847,4.847,0,0,1,3.088.379,1.6,1.6,0,0,0-.079-1.072c.088.024.173.046.256.062,1.291.234,2.121.294,2.479,1.245.536-.476,1.348-1.251-.118-2.28a7.266,7.266,0,0,1,2.138,2.1c.3-.832,1.351-1.789-.236-3.03A2.562,2.562,0,0,0,92.928,70.358Z"/>
        <path id="Path_5447" data-name="Path 5447" class="cls-6" d="M79.712,94.126c-3.445.973-8.417,9.915-9.035,10.623.227.147-1.856.486-2.443-5.768.808-1.685,3.356-11.095,6.33-12.51,2.222-1.056,4.369-1.2,4.741.56A60.2,60.2,0,0,1,79.712,94.126Z"/>
        <path id="Path_5448" data-name="Path 5448" class="cls-16" d="M89.52,85.353s1.545,14.163,1.7,17.188c.2,3.77-.969,2.493-2.191-.189-.37-.808-2.945-15.769-2.836-16.782S89.518,84.667,89.52,85.353Z"/>
        <path id="Path_5449" data-name="Path 5449" class="cls-16" d="M74.756,85.934s-1.632,3.723-2.01,13c-.123,3.044.344,4.434.929,3.656S75.4,88.209,77.764,85.774C78.015,85.023,75.074,84.67,74.756,85.934Z"/>
        <path id="Path_5450" data-name="Path 5450" class="cls-16" d="M85.671,93.232c1.78.881,2.864,2.164,3.713,4.734s-.744,1.587.266,5.993.565,9.056-1.344,11.11-12.524,2.157-15.271-.58,1-19.564,3.675-21.195S85.671,93.232,85.671,93.232Z"/>
        <path id="Path_5451" data-name="Path 5451" class="cls-17" d="M83.534,92.223c1.779.881,2.864,2.164,3.713,4.733s-.744,1.588.265,5.994,1.041,9.179-.867,11.234-11.348,2.276-14.092-.462-4.121-12.657,2.02-21.437C76.367,89.718,83.534,92.223,83.534,92.223Z"/>
        <path id="Path_5452" data-name="Path 5452" class="cls-16" d="M74.538,106.312c1.048-.8,2.79,1.569,5.943,1.243,2.094-.215,2.87-1.419,3.815-.888,1.066.6,1.28,2.811.531,4.351-1.077,2.222-3.857,2.453-4.257,2.487a6.031,6.031,0,0,1-5.588-2.752C74.1,109.294,73.654,106.988,74.538,106.312Z"/>
        <path id="Path_5453" data-name="Path 5453" class="cls-16" d="M73.834,98.392l5.832.945,5.823-1.374v.7l-5.828,1.788-6.152-1.113Z"/>
        <path id="Path_5454" data-name="Path 5454" class="cls-18" d="M99.1,47.342l-.372.343-1.4-1.515-2.715,2.51-.38-.414-.52.481.378.41h0L96.9,52.2l3.187,3.45.52-.48-.378-.41,2.715-2.511-1.4-1.522.372-.344m-.148-.161c-.65-.707.169-1.743.707-2.293l3.66-3.383a1.19,1.19,0,0,0,.159.031l.211.025a4.848,4.848,0,0,0,2.1.265c.168.1.335.194.505.278,4.316,2.18,8.066-1.23,8.066-1.23a.872.872,0,0,0,.178-1.039L115.9,41.3c.2-.166.387-.318.539-.448a.594.594,0,0,0,.77-.03l.578-.534a.6.6,0,0,0,.033-.84l-6.551-7.1a.6.6,0,0,0-.839-.033l-.578.534a.6.6,0,0,0-.092.766c-.141.141-.3.31-.489.5l-.331-.36h0l-1.026-1.111a.868.868,0,0,0-1.048.094s-3.521,3.308-1.989,7.633c.077.218.167.439.271.662a4.884,4.884,0,0,0,.085,2.195l.017.244a1.04,1.04,0,0,0,.015.124L102,46.61h0l-.018.018-.326.3c-.573.492-1.724,1.3-2.4.574M116,43.667c-2.267,1.569-4.092,1.524-5.315,1.126a4.778,4.778,0,0,1-.546-.215,16.9,16.9,0,0,0,5.043-2.722l.276.3h0l.578.626c.451.56-.038.881-.038.881Zm-8.989-9.741s.36-.463.885.035l.424.461h0l.331.359a17.1,17.1,0,0,0-3.079,4.734,4.913,4.913,0,0,1-.176-.731,6.08,6.08,0,0,1,1.617-4.858Z"/>
        <path id="Path_5455" data-name="Path 5455" class="cls-18" d="M111.194,125.956l.868-24.51-.485-.285c0-2.085-.523-6.371-.42-8.92.17-4.1-.1-8.7-.057-12.5a7.121,7.121,0,0,1-1.78-.676c-2.626-1.378-5.4-4.019-6.108-5.656a.563.563,0,0,0,.07.013c-1.138-1.294-1.274-4.307-.723-6.555.11-.45.284-1.038.5-1.665a19.243,19.243,0,0,1-.674-1.884q-.041-.075-.079-.155c-.009-.017-.016-.035-.024-.053-.022-.049-.043-.1-.065-.154-.007-.02-.015-.04-.023-.061-.025-.071-.051-.144-.073-.221-.043-.145-.085-.291-.125-.436-.013-.045-.025-.091-.038-.137-.027-.1-.055-.2-.081-.3l-.042-.163c-.024-.092-.047-.184-.071-.276-.014-.056-.028-.112-.041-.168-.023-.095-.046-.19-.069-.285-.011-.051-.024-.1-.035-.152-.031-.138-.063-.276-.092-.414-.012-.054-.022-.108-.034-.162-.018-.088-.036-.175-.054-.263-.014-.07-.027-.14-.041-.21l-.039-.212c-.014-.076-.028-.153-.041-.229s-.021-.124-.032-.187c-.014-.082-.027-.165-.04-.246-.008-.048-.015-.1-.023-.146-.05-.327-.095-.654-.134-.984l-.009-.078c-.012-.107-.024-.215-.035-.323a.3.3,0,0,0-.008-.085c-.011-.112-.022-.224-.032-.336V56.84a30.708,30.708,0,0,1,.359-7.755,14.607,14.607,0,0,1-.9-2.323c-.118-.8-.173-2.828.368-3.374a.93.93,0,0,1,1.084-.109,1.078,1.078,0,0,1,1.275-.019.829.829,0,0,1,1.16.28.914.914,0,0,1,1.062.319,1.8,1.8,0,0,1,.389.717c.2-.115.393-.134.5-.02a6.078,6.078,0,0,0-.268,1.627,4.87,4.87,0,0,1-.791,1.313,6.048,6.048,0,0,1-1.724,1.762h-.01c.262,2.983,1.566,8.446,2.1,11.837a.549.549,0,0,1,.281.2v-.036c.542.685,4.879,9.279,7.919,10.324a13.931,13.931,0,0,1,1.574-.459h.022c.137-.032.275-.062.414-.091l.089-.017c.124-.025.248-.049.374-.072l.1-.017.327-.055.027-2.286a5.16,5.16,0,0,1-2.159-1.741,8.274,8.274,0,0,1-1.51-4.171,2.554,2.554,0,0,1-1.532-.889c-.666-.8-.946-2.277-.059-2.971.633-.495,1.3-.025,1.683.63.019-.173.04-.347.065-.526-.1-.433-.185-.919-.274-1.466-.253.331-1.228.667-1.465.926-.232-1.281-.124-3.414,1-4.567,0,0,.238-5.827,12.465-4.573-.006.929-.732,2.121-1.366,2.086,1.576.926,1.212,2.222,1.522,2.917.489,1.079,1.575,1.428,2.834,1.948a2.106,2.106,0,0,1-2.781-.231c1.4,1.212.471,2.143.209,2.953-.133-.2-.287-.412-.448-.622-.02.631-.046,1.313-.079,1.994a.786.786,0,0,1,1.287.179,2.337,2.337,0,0,1-.5,2.893,1.861,1.861,0,0,1-1.031.4c-.237,1.85-.8,3.592-2.473,4.552a6.093,6.093,0,0,1-1.2.525l.034.474h0l.094,1.3h.185c.45.018.882.048,1.289.093h.026c.124.013.245.028.365.043h.021a8.7,8.7,0,0,1,1.775.4.852.852,0,0,1,.3.2.4.4,0,0,1,.222.041c4.269,2.121,5.242,11.461,7.363,17.607a1.674,1.674,0,0,1-.3,1.639c1.433,3.63,3.458,11.135,4.816,13.294,0,0,1.212,1.462,1.7,1.919.58.546,2.525,5.1,2.292,5.711-.186.487-.616-.544-.688-.744s-.808-1.584-.808-1.584a25.085,25.085,0,0,1,.755,3.038c-.024.437-.814-1.2-1.135-1.895a31.965,31.965,0,0,0-2.379-3.16,15.034,15.034,0,0,1-.927,2.966c-.29.211-.066-5.071-.066-5.071l-.006-.031a31.829,31.829,0,0,1-6.943-12.671c-.344.046-.579.021-.615-.082-.715-2.042-1.435-4.361-2.091-6.636-.047,1.966-.107,3.838-.132,5.379-.068,4.325,1.575,10.891,1.575,10.891s-.694.311-1.778.678c.168,3.588.3,23.419.258,23.3h-5.069c-.113-.617-1.328-12.636-1.887-17.425-.689,4.646-1.326,13.908-1.887,17.425Z"/>
      </g>
    </g>
  </g>
</svg>
