<svg xmlns="http://www.w3.org/2000/svg" xmlns:xlink="http://www.w3.org/1999/xlink" width="210" height="202" viewBox="0 0 210 202">
  <defs>
    <style>
      .cls-1 {
        fill: #fff;
        stroke: #707070;
      }

      .cls-2 {
        clip-path: url(#clip-path);
      }

      .cls-3 {
        fill: #1a1a1a;
      }

      .cls-4 {
        fill: #2292dd;
      }
    </style>
    <clipPath id="clip-path">
      <rect id="Rectangle_2757" data-name="Rectangle 2757" class="cls-1" width="210" height="202" transform="translate(1170 238.005)"/>
    </clipPath>
  </defs>
  <g id="Mask_Group_4" data-name="Mask Group 4" class="cls-2" transform="translate(-1170 -238.005)">
    <g id="Layer_2" data-name="Layer 2" transform="translate(1178.789 238.005)">
      <g id="Layer_1" data-name="Layer 1">
        <path id="Path_5456" data-name="Path 5456" class="cls-3" d="M161.819,145.164v9.824H139.374a15.742,15.742,0,0,0-15.743,15.743v22.446H8.184V8.824H161.819V17.17a4.043,4.043,0,0,0,2.138,3.568l.083.044A4.051,4.051,0,0,0,170,17.212V7.655A7.655,7.655,0,0,0,162.348,0H7.655A7.655,7.655,0,0,0,0,7.655v186.69A7.655,7.655,0,0,0,7.655,202H127.3L170,159.3V145.119a4.051,4.051,0,0,0-5.964-3.569l-.083.045A4.042,4.042,0,0,0,161.819,145.164Z"/>
        <rect id="Rectangle_2760" data-name="Rectangle 2760" class="cls-3" width="83.438" height="5.183" rx="2.557" transform="translate(25.943 164.257)"/>
        <rect id="Rectangle_2761" data-name="Rectangle 2761" class="cls-3" width="74.654" height="5.183" rx="2.557" transform="translate(25.943 142.308)"/>
        <path id="Path_5457" data-name="Path 5457" class="cls-3" d="M25.943,122.915v.069a2.558,2.558,0,0,0,2.557,2.557H74.492a2.557,2.557,0,0,0,2.068-4.062l-.048-.068a2.561,2.561,0,0,0-2.068-1.053H28.5a2.558,2.558,0,0,0-2.557,2.557Z"/>
        <path id="Path_5458" data-name="Path 5458" class="cls-3" d="M28.5,103.591H63.688a2.557,2.557,0,0,0,2.453-3.27c-.007-.023-.013-.046-.02-.069a2.555,2.555,0,0,0-2.453-1.843H28.5a2.557,2.557,0,0,0-2.557,2.557v.068a2.557,2.557,0,0,0,2.557,2.557Z"/>
        <path id="Path_5459" data-name="Path 5459" class="cls-3" d="M25.943,79.016v.069A2.557,2.557,0,0,0,28.5,81.642H60.9a2.559,2.559,0,0,0,2.556-2.488c0-.023,0-.048,0-.069A2.554,2.554,0,0,0,60.9,76.459H28.5a2.558,2.558,0,0,0-2.557,2.557Z"/>
        <path id="Path_5460" data-name="Path 5460" class="cls-3" d="M28.5,59.692H65.027a2.561,2.561,0,0,0,2.409-1.7l.019-.052a2.559,2.559,0,0,0-2.4-3.431H28.5a2.558,2.558,0,0,0-2.557,2.557v.071A2.558,2.558,0,0,0,28.5,59.692Z"/>
        <path id="Path_5461" data-name="Path 5461" class="cls-3" d="M77.836,32.56H28.5a2.557,2.557,0,0,0-2.557,2.557v.068A2.557,2.557,0,0,0,28.5,37.743H77.777a2.554,2.554,0,0,0,1.943-.895c.02-.023.039-.048.059-.069A2.557,2.557,0,0,0,77.836,32.56Z"/>
        <path id="Path_5462" data-name="Path 5462" class="cls-4" d="M161.819,28.524a60.6,60.6,0,1,0,30.6,52.644A60.365,60.365,0,0,0,161.819,28.524Zm-5.088,84.638A40.529,40.529,0,0,1,97.9,59.04c17.038-26,55.319-23.937,69.748,3.12A40.525,40.525,0,0,1,156.731,113.162Z"/>
        <path id="Path_5463" data-name="Path 5463" class="cls-4" d="M150.355,59.692c-1.838,1.833,1.025-1.03-25.975,25.971L113.353,74.637c-11.158,11.158-8.739,8.739-10.981,10.983,2.164,2.161,19.344,19.343,22.008,22.007l36.955-36.954Z"/>
      </g>
    </g>
  </g>
</svg>
